<svg width="41" height="41" viewBox="0 0 41 41" fill="none" xmlns="http://www.w3.org/2000/svg">
<rect width="41" height="41" fill="#1E1E1E"/>
<rect x="-2" y="-3" width="45" height="46" fill="#2D3142"/>
<path d="M15.134 24.7258L14.2603 22.6365L12.0154 22.3286L10.6504 24.1111L11.5181 26.2L13.7629 26.5076M15.134 24.7258L13.7629 26.5076M15.134 24.7258L22.5947 20.0959M13.7629 26.5076L18.1697 33.2334M22.5947 20.0959L24.8396 20.4036M22.5947 20.0959L21.7271 18.0076M18.1697 33.2334L19.0381 35.3159L21.2827 35.6235L22.6531 33.8479L21.7795 31.7585M18.1697 33.2334L19.5784 31.3735L21.7795 31.7585M16.9929 9.62402L14.748 9.31641L13.377 11.0979L14.2507 13.1873M16.9929 9.62402L17.7524 11.6875L16.4956 13.4951M16.9929 9.62402L24.438 5.62549M14.2507 13.1873L16.4956 13.4951M14.2507 13.1873L11.7415 22.4248M16.4956 13.4951C16.8752 13.7159 21.7271 18.0076 21.7271 18.0076M24.438 5.62549L25.8091 3.84399L28.054 4.15161L28.9277 6.24097L27.5566 8.02271M24.438 5.62549L25.2039 7.68994L27.5566 8.02271M21.7271 18.0076L22.9841 16.2L25.3032 16.5281M21.7795 31.7585L24.8396 20.4036M25.3032 16.5281L25.3369 16.5327L26.2107 18.6221L24.8396 20.4036M25.3032 16.5281L27.5566 8.02271M25.3032 16.5281L25.1895 16.571M-3432.51 -3815.6L-3433.38 -3817.69L-3435.63 -3818L-3437 -3816.22L-3436.23 -3814.15L-3433.88 -3813.82L-3432.51 -3815.6Z" stroke="#37B0DF" stroke-linecap="round" stroke-linejoin="round"/>
</svg>
